<svg xmlns="http://www.w3.org/2000/svg" style="display: none;">
  <symbol id="icon-search" viewBox="0 0 24 24" fill="none" stroke="currentColor" stroke-width="2" stroke-linecap="round" stroke-linejoin="round">
    <circle cx="11" cy="11" r="8"></circle>
    <line x1="21" y1="21" x2="16.65" y2="16.65"></line>
  </symbol>

  <symbol id="icon-growth" viewBox="0 0 24 24" fill="none" stroke="currentColor" stroke-width="2" stroke-linecap="round" stroke-linejoin="round">
    <polyline points="23 6 13.5 15.5 8.5 10.5 1 18"></polyline>
    <polyline points="17 6 23 6 23 12"></polyline>
  </symbol>

  <symbol id="icon-profit" viewBox="0 0 24 24" fill="none" stroke="currentColor" stroke-width="2" stroke-linecap="round" stroke-linejoin="round">
    <line x1="12" y1="1" x2="12" y2="23"></line>
    <path d="M17 5H9.5a3.5 3.5 0 0 0 0 7h5a3.5 3.5 0 0 1 0 7H6"></path>
  </symbol>

  <symbol id="icon-health" viewBox="0 0 24 24" fill="none" stroke="currentColor" stroke-width="2" stroke-linecap="round" stroke-linejoin="round">
    <path d="M12 22s8-4 8-10V5l-8-3-8 3v7c0 6 8 10 8 10z"></path>
  </symbol>

  <symbol id="icon-valuation" viewBox="0 0 24 24" fill="none" stroke="currentColor" stroke-width="2" stroke-linecap="round" stroke-linejoin="round">
    <rect x="2" y="7" width="20" height="14" rx="2" ry="2"></rect>
    <path d="M16 21V5a2 2 0 0 0-2-2h-4a2 2 0 0 0-2 2v16"></path>
  </symbol>

  <symbol id="icon-ownership" viewBox="0 0 24 24" fill="none" stroke="currentColor" stroke-width="2" stroke-linecap="round" stroke-linejoin="round">
    <path d="M17 21v-2a4 4 0 0 0-4-4H5a4 4 0 0 0-4 4v2"></path>
    <circle cx="9" cy="7" r="4"></circle>
    <path d="M23 21v-2a4 4 0 0 0-3-3.87"></path>
    <path d="M16 3.13a4 4 0 0 1 0 7.75"></path>
  </symbol>

  <symbol id="icon-cashflow" viewBox="0 0 24 24" fill="none" stroke="currentColor" stroke-width="2" stroke-linecap="round" stroke-linejoin="round">
    <rect x="1" y="4" width="22" height="16" rx="2" ry="2"></rect>
    <line x1="1" y1="10" x2="23" y2="10"></line>
  </symbol>

  <symbol id="icon-quality" viewBox="0 0 24 24" fill="none" stroke="currentColor" stroke-width="2" stroke-linecap="round" stroke-linejoin="round">
    <polygon points="12 2 15.09 8.26 22 9.27 17 14.14 18.18 21.02 12 17.77 5.82 21.02 7 14.14 2 9.27 8.91 8.26 12 2"></polygon>
  </symbol>

  <symbol id="icon-redflag" viewBox="0 0 24 24" fill="none" stroke="currentColor" stroke-width="2" stroke-linecap="round" stroke-linejoin="round">
    <path d="M4 15s1-1 4-1 5 2 8 2 4-1 4-1V3s-1 1-4 1-5-2-8-2-4 1-4 1z"></path>
    <line x1="4" y1="22" x2="4" y2="15"></line>
  </symbol>

  <symbol id="icon-sector" viewBox="0 0 24 24" fill="none" stroke="currentColor" stroke-width="2" stroke-linecap="round" stroke-linejoin="round">
    <path d="M3 9l9-7 9 7v11a2 2 0 0 1-2 2H5a2 2 0 0 1-2-2z"></path>
    <polyline points="9 22 9 12 15 12 15 22"></polyline>
  </symbol>

  <symbol id="icon-flowchart" viewBox="0 0 24 24" fill="none" stroke="currentColor" stroke-width="2" stroke-linecap="round" stroke-linejoin="round">
    <rect x="3" y="3" width="6" height="6" rx="1"></rect>
    <rect x="15" y="3" width="6" height="6" rx="1"></rect>
    <rect x="9" y="15" width="6" height="6" rx="1"></rect>
    <path d="M6 9v3a1 1 0 0 0 1 1h10a1 1 0 0 0 1-1V9"></path>
    <path d="M12 13v2"></path>
  </symbol>

  <symbol id="icon-check" viewBox="0 0 24 24" fill="none" stroke="currentColor" stroke-width="2" stroke-linecap="round" stroke-linejoin="round">
    <polyline points="20 6 9 17 4 12"></polyline>
  </symbol>

  <symbol id="icon-alert" viewBox="0 0 24 24" fill="none" stroke="currentColor" stroke-width="2" stroke-linecap="round" stroke-linejoin="round">
    <path d="M10.29 3.86L1.82 18a2 2 0 0 0 1.71 3h16.94a2 2 0 0 0 1.71-3L13.71 3.86a2 2 0 0 0-3.42 0z"></path>
    <line x1="12" y1="9" x2="12" y2="13"></line>
    <line x1="12" y1="17" x2="12.01" y2="17"></line>
  </symbol>

  <symbol id="icon-bookmark" viewBox="0 0 24 24" fill="none" stroke="currentColor" stroke-width="2" stroke-linecap="round" stroke-linejoin="round">
    <path d="M19 21l-7-5-7 5V5a2 2 0 0 1 2-2h10a2 2 0 0 1 2 2z"></path>
  </symbol>

  <symbol id="icon-up" viewBox="0 0 24 24" fill="none" stroke="currentColor" stroke-width="2" stroke-linecap="round" stroke-linejoin="round">
    <line x1="12" y1="19" x2="12" y2="5"></line>
    <polyline points="5 12 12 5 19 12"></polyline>
  </symbol>

  <symbol id="icon-down" viewBox="0 0 24 24" fill="none" stroke="currentColor" stroke-width="2" stroke-linecap="round" stroke-linejoin="round">
    <line x1="12" y1="5" x2="12" y2="19"></line>
    <polyline points="19 12 12 19 5 12"></polyline>
  </symbol>

  <symbol id="icon-external" viewBox="0 0 24 24" fill="none" stroke="currentColor" stroke-width="2" stroke-linecap="round" stroke-linejoin="round">
    <path d="M18 13v6a2 2 0 0 1-2 2H5a2 2 0 0 1-2-2V8a2 2 0 0 1 2-2h6"></path>
    <polyline points="15 3 21 3 21 9"></polyline>
    <line x1="10" y1="14" x2="21" y2="3"></line>
  </symbol>

  <symbol id="icon-calculator" viewBox="0 0 24 24" fill="none" stroke="currentColor" stroke-width="2" stroke-linecap="round" stroke-linejoin="round">
    <rect x="4" y="2" width="16" height="20" rx="2"></rect>
    <line x1="8" y1="6" x2="16" y2="6"></line>
    <line x1="16" y1="14" x2="16" y2="18"></line>
    <path d="M8 10h.01M12 10h.01M16 10h.01M8 14h.01M12 14h.01M8 18h.01M12 18h.01"></path>
  </symbol>
</svg>
